<svg xmlns="http://www.w3.org/2000/svg" width="1700" height="1000" viewBox="0 0 1700 1000" role="img" aria-labelledby="title desc">
<title id="title">02D Veridica Consumer Actions</title>
<desc id="desc">Three-pool collaboration. Consumer Party (single instance) starts on Consumer_Authorized from the 02 chassis (external). The consumer discovers the privacy-safe catalog (published by Contributor or Product Publisher, multiplicity 1..999), selects a direct or aggregate product, submits credential, purpose, and access request to the Veridica Platform. The platform checks credential, purpose, policy, and permission, then applies pricing and licensing (granted) or records denial reason (denied), and sends Access_Granted or Access_Denied. The consumer waits via an event-based gateway, then routes through the AC_C_Result exclusive gateway (presentation-layer path) to either record denied outcome or proceed to the AC_C_Path exclusive gateway (presentation-layer path) which selects normal Daml stakeholder/observer visibility or Explicit Contract Disclosure. The consumer uses the product for the approved purpose, receives Use_Confirmation_Requested, confirms usage or reuse, and sends Use_Confirmation. Exactly one boundary message catch exists, on the use-product task, for governance suspension mid-use. No message flow reaches 06 Reward Allocation or Process_AllocationEffector.</desc>
<defs><marker id="arrow" markerWidth="8" markerHeight="8" refX="7" refY="4" orient="auto"><path d="M0 0L8 4L0 8Z" fill="#334155"/></marker><marker id="message-arrow" markerWidth="8" markerHeight="8" refX="7" refY="4" orient="auto"><path d="M0 0L8 4L0 8Z" fill="#7c3aed"/></marker><style>.pool{fill:#fff;stroke:#0f172a;stroke-width:2}.external-pool{fill:#f8fafc;stroke:#475569;stroke-width:1.5;stroke-dasharray:6 3}.task{fill:#fff;stroke:#1d4ed8;stroke-width:1.6}.event{fill:#fff;stroke:#0f766e;stroke-width:2}.boundary{fill:#fff;stroke:#b91c1c;stroke-width:2}.end{stroke-width:4}.flow{fill:none;stroke:#334155;stroke-width:1.7;marker-end:url(#arrow)}.message{fill:none;stroke:#7c3aed;stroke-width:1.7;stroke-dasharray:7 4;marker-end:url(#message-arrow)}.t{font:11px sans-serif;fill:#0f172a}.s{font:10px sans-serif;fill:#334155}.poolname{font:bold 14px sans-serif;fill:#0f172a}.label{font:10px sans-serif;fill:#5b21b6}</style></defs>
<g id="DI_Chassis_External_02d"><rect class="external-pool" x="20" y="20" width="1640" height="50"/><text class="poolname" x="32" y="42">Participant lifecycle chassis (02, external source of Consumer_Authorized)</text></g>
<g id="DI_VeridicaPlatform_02d"><rect class="pool" x="20" y="90" width="1640" height="280"/><text class="poolname" x="32" y="112">Veridica Platform</text></g>
<g id="DI_VP_AccessRequestReceived"><circle class="event" cx="138" cy="208" r="18"/><text class="s" x="78" y="244">Access_Request received</text></g>
<g id="DI_VP_CheckCredentialPurpose"><rect class="task" x="220" y="180" width="200" height="56" rx="8"/><text class="t" x="228" y="200">Check credential,</text><text class="t" x="236" y="214">purpose, policy,</text><text class="t" x="252" y="228">and permission</text></g>
<g id="DI_VP_AccessDecision"><polygon class="gateway" points="516,180 544,208 516,236 488,208" fill="#fef3c7" stroke="#b45309" stroke-width="2"/><path d="M498,190L538,226M538,190L498,226" stroke="#b45309" stroke-width="2"/><text class="s" x="440" y="174" text-anchor="middle">Access permitted?</text></g>
<g id="DI_VP_ApplyPricing"><rect class="task" x="560" y="150" width="200" height="46" rx="8"/><text class="t" x="572" y="170">Apply product pricing</text><text class="t" x="600" y="186">and licensing</text></g>
<g id="DI_VP_AccessGrantedSent"><circle class="event end" cx="818" cy="173" r="18"/><text class="s" x="758" y="209">Access_Granted sent</text></g>
<g id="DI_VP_RecordDenial"><rect class="task" x="560" y="220" width="200" height="46" rx="8"/><text class="t" x="572" y="240">Record denial reason</text><text class="t" x="600" y="256">(for Access_Denied)</text></g>
<g id="DI_VP_AccessDeniedSent"><circle class="event end" cx="818" cy="243" r="18"/><text class="s" x="758" y="279">Access_Denied sent</text></g>
<g id="DI_VP_UseConfirmationRequestedSent"><circle class="event end" cx="818" cy="303" r="18"/><text class="s" x="758" y="339">Use_Confirmation_Requested sent</text></g>
<g id="DI_VP_UseConfirmationReceived"><circle class="event" cx="918" cy="218" r="18"/><text class="s" x="858" y="254">Use_Confirmation received</text></g>
<g id="DI_VP_RecordUsage"><rect class="task" x="980" y="190" width="200" height="56" rx="8"/><text class="t" x="992" y="210">Record permitted</text><text class="t" x="1004" y="224">usage or reuse</text></g>
<g id="DI_VP_End"><circle class="event end" cx="1220" cy="218" r="18"/><text class="s" x="1160" y="254">Consumer round complete</text></g>
<g id="DI_Participant_Process_ConsumerParty"><rect class="pool" x="20" y="390" width="1640" height="440"/><text class="poolname" x="32" y="412">Consumer Party (single instance)</text></g>
<g id="DI_CM_Authorized"><circle class="event" cx="138" cy="488" r="18"/><text class="s" x="78" y="524">Consumer_Authorized received</text></g>
<g id="DI_CM_DiscoverCatalog"><rect class="task" x="220" y="460" width="200" height="56" rx="8"/><text class="t" x="232" y="480">Discover privacy-safe</text><text class="t" x="256" y="494">catalog</text></g>
<g id="DI_CM_SelectProduct"><rect class="task" x="460" y="460" width="200" height="56" rx="8"/><text class="t" x="472" y="480">Select direct or</text><text class="t" x="492" y="494">aggregate product</text></g>
<g id="DI_CM_SubmitAccessRequest"><rect class="task" x="700" y="460" width="200" height="56" rx="8"/><text class="t" x="712" y="480">Submit credential,</text><text class="t" x="716" y="494">purpose, access request</text></g>
<g id="DI_CM_AccessRequestSent"><circle class="event end" cx="958" cy="488" r="18"/><text class="s" x="898" y="524">Access_Request sent</text></g>
<g id="DI_CM_Result_Wait"><polygon class="gateway" points="1096,460 1124,488 1096,516 1068,488" fill="#fef3c7" stroke="#b45309" stroke-width="2"/><circle cx="1096" cy="488" r="14" fill="none" stroke="#b45309" stroke-width="2"/><text class="s" x="1020" y="444" text-anchor="middle">Wait for Access_Granted</text><text class="s" x="1030" y="458" text-anchor="middle">or Access_Denied</text></g>
<g id="DI_CM_AccessGrantedReceived"><circle class="event" cx="1178" cy="428" r="18"/><text class="s" x="1118" y="464">Access_Granted received</text></g>
<g id="DI_CM_AccessDeniedReceived"><circle class="event" cx="1178" cy="528" r="18"/><text class="s" x="1118" y="564">Access_Denied received</text></g>
<g id="DI_CM_Result"><polygon class="gateway" points="1296,450 1324,478 1296,506 1268,478" fill="#fef3c7" stroke="#b45309" stroke-width="2"/><path d="M1278,460L1318,496M1318,460L1278,496" stroke="#b45309" stroke-width="2"/><text class="s" x="1220" y="434" text-anchor="middle">AC_C_Result:</text><text class="s" x="1220" y="448" text-anchor="middle">access result (presentation path)</text></g>
<g id="DI_CM_RecordDenied"><rect class="task" x="1240" y="490" width="180" height="46" rx="8"/><text class="t" x="1252" y="510">Record denied</text><text class="t" x="1268" y="526">access outcome</text></g>
<g id="DI_CM_DeniedEnd"><circle class="event end" cx="1460" cy="513" r="18"/><text class="s" x="1400" y="549">Access denied; round complete</text></g>
<g id="DI_CM_Path"><polygon class="gateway" points="1396,420 1424,448 1396,476 1368,448" fill="#fef3c7" stroke="#b45309" stroke-width="2"/><path d="M1378,430L1418,466M1418,430L1378,466" stroke="#b45309" stroke-width="2"/><text class="s" x="1320" y="404" text-anchor="middle">AC_C_Path:</text><text class="s" x="1310" y="418" text-anchor="middle">presentation path</text></g>
<g id="DI_CM_UseNormalVisibility"><rect class="task" x="1440" y="390" width="180" height="46" rx="8"/><text class="t" x="1452" y="410">Use normal Daml</text><text class="t" x="1452" y="426">stakeholder or observer visibility</text></g>
<g id="DI_CM_AttachECD"><rect class="task" x="1440" y="460" width="180" height="46" rx="8"/><text class="t" x="1452" y="480">Attach Explicit</text><text class="t" x="1452" y="496">Contract Disclosure to command</text></g>
<g id="DI_CM_UseMerge"><polygon class="gateway" points="1396,580 1424,608 1396,636 1368,608" fill="#fef3c7" stroke="#b45309" stroke-width="2"/><text class="s" x="1320" y="564" text-anchor="middle">merge</text></g>
<g id="DI_CM_UseProduct"><rect class="task" x="1440" y="580" width="180" height="56" rx="8"/><text class="t" x="1452" y="600">Use product for</text><text class="t" x="1472" y="614">approved purpose</text></g>
<g id="DI_CM_UseConfirmationRequestedReceived"><circle class="event" cx="1458" cy="678" r="18"/><text class="s" x="1398" y="714">Use_Confirmation_Requested</text><text class="s" x="1410" y="728">received</text></g>
<g id="DI_CM_ConfirmUsage"><rect class="task" x="1280" y="700" width="140" height="56" rx="8"/><text class="t" x="1292" y="720">Confirm usage</text><text class="t" x="1304" y="734">or reuse record</text></g>
<g id="DI_CM_UseConfirmationSent"><circle class="event end" cx="1138" cy="728" r="18"/><text class="s" x="1078" y="764">Use_Confirmation sent</text></g>
<g id="DI_CM_GovernanceInterruption"><circle class="boundary" cx="1530" cy="578" r="18"/><text class="s" x="1468" y="558">Governance suspension</text><text class="s" x="1480" y="572">mid-use</text></g>
<g id="DI_CM_ApplyInterruption"><rect class="task" x="1440" y="700" width="180" height="46" rx="8"/><text class="t" x="1452" y="720">Apply governance</text><text class="t" x="1480" y="736">suspension</text></g>
<g id="DI_CM_Interrupted"><circle class="event end" cx="1658" cy="723" r="18"/><text class="s" x="1598" y="759">Consumer suspended by governance</text></g>
<g id="DI_CM_End"><circle class="event end" cx="1058" cy="728" r="18"/><text class="s" x="998" y="764">Consumer round complete</text></g>
<g id="DI_Participant_Process_PublisherParty"><rect class="pool" x="20" y="850" width="1640" height="120"/><text class="poolname" x="32" y="872">Contributor or Product Publisher (multiplicity 1..999)</text></g>
<g id="DI_PB_PublishCatalog"><rect class="task" x="220" y="880" width="280" height="56" rx="8"/><text class="t" x="232" y="900">Publish catalog metadata,</text><text class="t" x="244" y="914">price, and permitted-use terms</text></g>
<g id="DI_PB_End"><circle class="event end" cx="540" cy="908" r="18"/><text class="s" x="480" y="944">Catalog published</text></g>
<path id="DI_VP1" class="flow" d="M156,208L220,208"/><path id="DI_VP2" class="flow" d="M420,208L460,208"/><path id="DI_VP4a" class="flow" d="M516,208L560,173"/><path id="DI_VP4b" class="flow" d="M488,236L488,243L560,243"/><path id="DI_VP5a" class="flow" d="M760,173L800,173"/><path id="DI_VP5b" class="flow" d="M760,243L800,243"/><path id="DI_VP6" class="flow" d="M836,173L836,303"/><path id="DI_VP7" class="flow" d="M836,321L900,236L918,218"/><path id="DI_VP8" class="flow" d="M936,218L980,218"/><path id="DI_VP9" class="flow" d="M1180,218L1220,218"/>
<path id="DI_CM1" class="flow" d="M156,488L220,488"/><path id="DI_CM2" class="flow" d="M420,488L460,488"/><path id="DI_CM3" class="flow" d="M660,488L700,488"/><path id="DI_CM4" class="flow" d="M900,488L940,488"/><path id="DI_CM5" class="flow" d="M976,488L1040,488"/><path id="DI_CM5a" class="flow" d="M1068,460L1068,428L1160,428"/><path id="DI_CM5b" class="flow" d="M1096,488L1160,528"/><path id="DI_CM6a" class="flow" d="M1196,428L1240,468"/><path id="DI_CM6b" class="flow" d="M1196,528L1240,488"/><path id="DI_CM7a" class="flow" d="M1268,450L1240,420L1296,420"/><path id="DI_CM7b" class="flow" d="M1268,506L1240,513"/><path id="DI_CM8b" class="flow" d="M1420,513L1460,513"/><path id="DI_CM9a" class="flow" d="M1368,420L1368,413L1440,413"/><path id="DI_CM9b" class="flow" d="M1396,448L1440,483"/><path id="DI_CM10a" class="flow" d="M1530,436L1530,600L1396,600"/><path id="DI_CM10b" class="flow" d="M1530,506L1530,616L1396,616"/><path id="DI_CM11" class="flow" d="M1368,636L1440,608"/><path id="DI_CM12" class="flow" d="M1530,636L1530,660"/><path id="DI_CM13" class="flow" d="M1440,678L1400,728"/><path id="DI_CM14" class="flow" d="M1280,728L1156,728"/><path id="DI_CM15" class="flow" d="M1120,728L1076,728"/><path id="DI_CM_BI1" class="flow" d="M1530,596L1530,700"/><path id="DI_CM_BI2" class="flow" d="M1620,723L1640,723"/>
<path id="DI_PB1" class="flow" d="M500,908L540,908"/>
<path id="DI_MF_ConsumerAuthorized" class="message" d="M80,70L80,380L138,380L138,470"/><text class="label" x="20" y="375">Consumer_Authorized</text>
<path id="DI_MF_AccessRequest" class="message" d="M976,470L976,370L138,370L138,190"/><text class="label" x="200" y="355">Access_Request</text>
<path id="DI_MF_AccessGranted" class="message" d="M836,155L836,370L1178,370L1178,410"/><text class="label" x="860" y="355">Access_Granted</text>
<path id="DI_MF_AccessDenied" class="message" d="M836,225L836,380L1178,380L1178,510"/><text class="label" x="860" y="365">Access_Denied</text>
<path id="DI_MF_UseConfirmationRequested" class="message" d="M836,285L836,350L1458,350L1458,660"/><text class="label" x="900" y="335">Use_Confirmation_Requested</text>
<path id="DI_MF_UseConfirmation" class="message" d="M1138,710L1138,350L918,350L918,200"/><text class="label" x="860" y="335">Use_Confirmation</text>
<path id="DI_MF_GovernanceInterruption_02d" class="message" d="M100,70L100,380L1530,380L1530,560"/><text class="label" x="20" y="375">Governance suspension mid-use</text>
</svg>
